<svg width="15" height="29" viewBox="0 0 15 29" fill="none" xmlns="http://www.w3.org/2000/svg">
<path d="M12.9771 0.335376L0.346006 13.2931C0.124159 13.5207 0 13.826 0 14.1438C0 14.4616 0.124159 14.7669 0.346006 14.9945L12.9771 27.9571C13.0805 28.0633 13.204 28.1476 13.3405 28.2052C13.477 28.2628 13.6236 28.2925 13.7718 28.2925C13.9199 28.2925 14.0665 28.2628 14.203 28.2052C14.3395 28.1476 14.463 28.0633 14.5664 27.9571C14.779 27.7395 14.898 27.4473 14.898 27.143C14.898 26.8387 14.779 26.5465 14.5664 26.3289L2.68844 14.1438L14.5664 1.96119C14.7783 1.74364 14.8968 1.45196 14.8968 1.14828C14.8968 0.844605 14.7783 0.552928 14.5664 0.335376C14.463 0.229239 14.3395 0.14488 14.203 0.0872781C14.0665 0.0296766 13.9199 0 13.7718 0C13.6236 0 13.477 0.0296766 13.3405 0.0872781C13.204 0.14488 13.0805 0.229239 12.9771 0.335376Z" fill="#E66A44"/>
</svg>
