<svg width="15" height="29" viewBox="0 0 15 29" fill="none" xmlns="http://www.w3.org/2000/svg">
<path d="M1.92082 0.335376L14.5519 13.2931C14.7738 13.5207 14.8979 13.826 14.8979 14.1438C14.8979 14.4616 14.7738 14.7669 14.5519 14.9945L1.92082 27.9571C1.81748 28.0633 1.69392 28.1476 1.55744 28.2052C1.42096 28.2628 1.27433 28.2925 1.12619 28.2925C0.978057 28.2925 0.83142 28.2628 0.694942 28.2052C0.558463 28.1476 0.434908 28.0633 0.331568 27.9571C0.118963 27.7395 -6.10352e-05 27.4473 -6.10352e-05 27.143C-6.10352e-05 26.8387 0.118963 26.5465 0.331568 26.3289L12.2095 14.1438L0.331568 1.96119C0.119693 1.74364 0.00112915 1.45196 0.00112915 1.14828C0.00112915 0.844605 0.119693 0.552928 0.331568 0.335376C0.434908 0.229239 0.558463 0.14488 0.694942 0.0872781C0.83142 0.0296766 0.978057 0 1.12619 0C1.27433 0 1.42096 0.0296766 1.55744 0.0872781C1.69392 0.14488 1.81748 0.229239 1.92082 0.335376Z" fill="#E66A44"/>
</svg>
